<?xml version="1.0" encoding="UTF-8"?>
<svg version="1.1" xmlns="http://www.w3.org/2000/svg" viewBox="0 0 582 379" preserveAspectRatio="xMidYMid meet">
<!-- Solterra logo (transparent background) -->
<path d="M0 0 C1.23810425 0.25354248 1.23810425 0.25354248 2.5012207 0.51220703 C23.0466874 4.80871258 43.4852787 9.71114167 63.875 14.6875 C73.54478794 17.04530501 83.2606879 19.14124888 93 21.1875 C112.15938643 25.21521456 112.15938643 25.21521456 119.375 26.875 C120.62023437 27.15988281 121.86546875 27.44476563 123.1484375 27.73828125 C126 28.5625 126 28.5625 129 30.5625 C128 35.5625 128 35.5625 122 47.5625 C33.89 47.5625 -54.22 47.5625 -145 47.5625 C-150.625 35.1875 -150.625 35.1875 -151 29.5625 C-149.96109619 29.33175781 -148.92219238 29.10101563 -147.85180664 28.86328125 C-129.86611989 24.86391591 -111.89150591 20.84158821 -94 16.4375 C-82.53397004 13.6158041 -71.03884353 10.99064408 -59.49517822 8.50598145 C-49.22178859 6.29439946 -38.99140517 3.93959406 -28.78710938 1.42724609 C-18.74701428 -1.03473895 -10.25954077 -2.15067496 0 0 Z " fill="#59A52C" transform="translate(305,238.4375)"/>
<path d="M0 0 C2.08370908 0.01075968 4.16656006 -0.00000332 6.25024414 -0.01269531 C15.44514275 -0.02186607 24.46280914 0.55912898 33.51782227 2.26074219 C34.01282227 2.75574219 34.01282227 2.75574219 34.51782227 3.26074219 C34.4108128 11.02709046 32.72397378 18.50319747 30.89282227 26.01074219 C30.3462928 28.31129641 29.80076262 30.61208819 29.25610352 32.91308594 C28.9707373 34.11175293 28.68537109 35.31041992 28.39135742 36.54541016 C26.90283462 42.87641629 25.49794042 49.22606125 24.08032227 55.57324219 C20.72810076 70.51099713 17.1553374 85.39004961 13.51782227 100.26074219 C6.25782227 100.26074219 -1.00217773 100.26074219 -8.48217773 100.26074219 C-10.42971449 95.06731084 -11.94916501 90.81707861 -13.06030273 85.53417969 C-13.33060303 84.26968994 -13.60090332 83.0052002 -13.87939453 81.70239258 C-14.01824066 81.03998566 -14.15708679 80.37757874 -14.30014038 79.69509888 C-15.04654649 76.13726665 -15.81409321 72.58398549 -16.57983398 69.03027344 C-16.73623856 68.30237106 -16.89264313 67.57446869 -17.05378723 66.82450867 C-18.67570719 59.30439528 -20.41169777 51.81254209 -22.16967773 44.32324219 C-22.46148926 43.07551025 -22.75330078 41.82777832 -23.05395508 40.54223633 C-24.27092973 35.35391642 -25.49789418 30.16895127 -26.77514648 24.99511719 C-28.63780031 17.41082245 -30.06966661 10.07208292 -30.48217773 2.26074219 C-20.28339871 0.76220182 -10.30957576 -0.06298883 0 0 Z " fill="#5AA52D" transform="translate(291.482177734375,72.7392578125)"/>
<path d="M0 0 C3.38297674 1.391748 4.7828982 2.74666819 6.59375 5.90234375 C7.06006836 6.69987061 7.52638672 7.49739746 8.00683594 8.3190918 C8.49958008 9.1831665 8.99232422 10.04724121 9.5 10.9375 C10.57626311 12.77713222 11.654434 14.61564945 12.734375 16.453125 C13.28029297 17.38576172 13.82621094 18.31839844 14.38867188 19.27929688 C16.76790932 23.29660325 19.24663338 27.24669992 21.75 31.1875 C22.23114258 31.94691895 22.71228516 32.70633789 23.20800781 33.48876953 C26.13082376 38.09026808 29.07773401 42.67596919 32.03125 47.2578125 C44.71571754 66.94527035 44.71571754 66.94527035 49.0625 74.25 C49.97708984 75.77367187 49.97708984 75.77367187 50.91015625 77.328125 C52 80 52 80 52.0078125 82.671875 C50.61183704 85.89668654 48.95286043 86.50822285 45.8125 88 C42.32717134 89.72915531 39.46257565 91.26944428 36.6875 94 C35.3571875 94.99 35.3571875 94.99 34 96 C29.22500157 94.94263081 25.56755989 92.58249776 21.625 89.8125 C14.94100015 85.23842637 8.12804394 80.90112905 1.25 76.625 C0.22318115 75.98602783 -0.8036377 75.34705566 -1.86157227 74.6887207 C-3.91913373 73.40847103 -5.97683081 72.12843929 -8.03466797 70.84863281 C-14.71645008 66.68310884 -21.36732822 62.46847192 -28.01855469 58.25439453 C-29.83647154 57.10352504 -31.6561679 55.95553833 -33.4765625 54.80859375 C-34.94222656 53.88240234 -34.94222656 53.88240234 -36.4375 52.9375 C-37.24058594 52.43089844 -38.04367188 51.92429688 -38.87109375 51.40234375 C-40.98110698 50.01244513 -42.99621607 48.53821227 -45 47 C-38.34434707 26.59983304 -16.44662051 11.9029546 0 0 Z " fill="#5AA52D" transform="translate(214,95)"/>
<path d="M0 0 C16.38621616 5.01685346 31.6240747 23.30427376 41.8125 36.5 C42.3472998 37.18304199 42.88209961 37.86608398 43.43310547 38.56982422 C43.91537598 39.21709473 44.39764648 39.86436523 44.89453125 40.53125 C45.32612549 41.10423828 45.75771973 41.67722656 46.20239258 42.26757812 C47 44 47 44 46.79663086 46.08422852 C45.47083891 49.27254891 42.57122516 50.66534081 39.75 52.4375 C39.09032227 52.86434082 38.43064453 53.29118164 37.75097656 53.73095703 C30.34328833 58.49304232 22.83179933 63.09585128 15.33203125 67.7109375 C10.34934049 70.77928766 5.38725895 73.87884738 0.4375 77 C-0.32546387 77.47824219 -1.08842773 77.95648438 -1.87451172 78.44921875 C-6.12404654 81.12693446 -10.31033598 83.87622822 -14.45703125 86.7109375 C-15.36187256 87.32195312 -16.26671387 87.93296875 -17.19897461 88.5625 C-18.94863801 89.74756533 -20.68830028 90.9475684 -22.41625977 92.1640625 C-28.27846037 96.11414186 -28.27846037 96.11414186 -31.765625 95.5625 C-32.50296875 95.046875 -33.2403125 94.53125 -34 94 C-34.80179687 93.47664063 -35.60359375 92.95328125 -36.4296875 92.4140625 C-37.23664063 91.82367188 -38.04359375 91.23328125 -38.875 90.625 C-42.80784781 87.80488907 -46.75027473 85.3096333 -51 83 C-49.61459034 79.25440375 -47.89568041 75.9920681 -45.796875 72.59765625 C-45.15331055 71.55359619 -44.50974609 70.50953613 -43.84667969 69.43383789 C-43.15477539 68.32129639 -42.46287109 67.20875488 -41.75 66.0625 C-41.02749959 64.89520592 -40.30517109 63.72780542 -39.58300781 62.56030273 C-33.35976342 52.51575429 -27.02102198 42.5455698 -20.65380859 32.59179688 C-17.94171747 28.34149286 -15.25188561 24.07719408 -12.5625 19.8125 C-8.39017881 13.19857801 -4.20699388 6.59194463 0 0 Z " fill="#5AA52D" transform="translate(371,95)"/>
<path d="M0 0 C0.48794398 2.1021486 0.96480744 4.2068695 1.4375 6.3125 C1.70433594 7.48425781 1.97117187 8.65601563 2.24609375 9.86328125 C5.98647996 28.66327485 5.35312061 49.39559168 1 68 C-7.74507924 67.55853929 -15.84459255 66.04898596 -24.3125 63.875 C-26.84968968 63.24120046 -29.38747364 62.60977614 -31.92578125 61.98046875 C-32.90286545 61.73720604 -32.90286545 61.73720604 -33.89968872 61.48902893 C-38.7878331 60.27901286 -43.69054149 59.14659154 -48.60546875 58.05078125 C-49.66306145 57.81488281 -49.66306145 57.81488281 -50.74201965 57.57421875 C-53.50372219 56.95998884 -56.26590776 56.34813959 -59.0296936 55.74334717 C-60.93720848 55.32578143 -62.84362815 54.90322223 -64.75 54.48046875 C-65.83796875 54.24223389 -66.9259375 54.00399902 -68.046875 53.75854492 C-73.44414144 52.3721935 -73.44414144 52.3721935 -76 51 C-77.0390625 48.98803711 -77.0390625 48.98803711 -77.625 46.52734375 C-77.85703125 45.62693359 -78.0890625 44.72652344 -78.328125 43.79882812 C-78.54984375 42.85458984 -78.7715625 41.91035156 -79 40.9375 C-80.60649419 34.29203131 -82.42244556 28.63924125 -86.01171875 22.77954102 C-87 21 -87 21 -87 19 C-72.67499001 15.47549959 -58.31773481 12.16065314 -43.89581299 9.06121826 C-33.68110216 6.86249633 -23.53039169 4.47234643 -13-43334961 1.77734375 C-8.84306777 0.57862608 -4.79277488 -0.32641822 0 0 Z " fill="#5AA52D" transform="translate(438,184)"/>
</svg>