<?xml version="1.0" encoding="UTF-8"?>
<svg version="1.1" xmlns="http://www.w3.org/2000/svg" width="356" height="303">
<path d="M0 0 C1.8031727 0.40358202 3.60647992 0.80656346 5.40991211 1.20898438 C20.05185557 4.48847486 34.66741934 7.88610729 49.27514648 11.31445312 C58.40471628 13.45525465 67.54043161 15.55971022 76.6953125 17.58984375 C77.61438889 17.79412994 78.53346527 17.99841614 79.48039246 18.20889282 C83.86430622 19.18260832 88.24944512 20.15007901 92.63696289 21.10742188 C94.20984656 21.45551062 95.78268438 21.80380662 97.35546875 22.15234375 C98.05249908 22.30195053 98.74952942 22.45155731 99.46768188 22.60569763 C104.2971363 23.68411273 108.77091978 25.24573399 113.375 27.0625 C112.74549018 33.04284325 110.89369521 39.90027523 107.08621114 44.68057591 C104.8814915 46.46104303 103.67631002 46.43921872 100.86280918 46.44281673 C99.93271961 46.45125668 99.00263003 46.45969662 98.04435593 46.46839231 C96.50906806 46.45937724 96.50906806 46.45937724 94.94276428 46.45018005 C93.85679834 46.45556559 92.7708324 46.46095113 91.65195841 46.46649987 C87.99450258 46.4808656 84.33740429 46.47365439 80.67993164 46.46655273 C78.0653199 46.47225178 75.45071064 46.47921422 72.83610535 46.48735046 C66.46033349 46.5045694 60.08466004 46.50537208 53.70887095 46.50013756 C48.52780664 46.4961003 43.34677146 46.49753412 38.16570854 46.50288582 C37.06068145 46.50400845 37.06068145 46.50400845 35.93333058 46.50515376 C34.4368761 46.5066852 32.94042162 46.50822355 31.44396716 46.50976873 C17.40217611 46.52350501 3.36044074 46.51804822 -10.68134905 46.50658352 C-23.53396604 46.49665031 -36.38643909 46.50959128 -49.23903387 46.53351771 C-62.42866791 46.55788702 -75.61823484 46.56752191 -88.80789095 46.56086498 C-96.21585657 46.55736788 -103.62371145 46.55963708 -111.03166008 46.57711601 C-117.99609115 46.59334427 -124.96024224 46.58869015 -131.92466545 46.56981087 C-134.48534084 46.56610987 -137.04603641 46.56927706 -139.60669327 46.57969666 C-143.09337824 46.59280451 -146.57913643 46.5814489 -150.06578064 46.56370544 C-151.08707516 46.57331045 -152.10836968 46.58291546 -153.16061252 46.59281152 C-159.99687139 46.52087712 -159.99687139 46.52087712 -163.20584965 44.17912388 C-164.73602895 41.89690336 -165.87047075 39.74665784 -166.875 37.1875 C-167.21015625 36.36507812 -167.5453125 35.54265625 -167.890625 34.6953125 C-168.72072264 31.71932416 -168.67479502 29.1386669 -168.625 26.0625 C-134.13855777 17.96072184 -99.59943002 10.08571999 -65.05300903 2.24423218 C-62.69715094 1.70932036 -60.34141621 1.17386491 -57.98580933 0.6378479 C-54.69665595 -0.11034094 -51.4069974 -0.85626645 -48.1171875 -1.6015625 C-46.6532682 -1.93516029 -46.6532682 -1.93516029 -45.15977478 -2.27549744 C-29.16232611 -5.89063627 -15.75878112 -3.58754037 0 0 Z " fill="#5EA632" transform="translate(202.625,201.9375)"/>
<path d="M0 0 C1.56113525 0.05184448 1.56113525 0.05184448 3.15380859 0.10473633 C20.79155827 0.86452914 20.79155827 0.86452914 26.4375 3.6875 C26.81726944 10.27250373 25.38810391 16.20346203 23.89453125 22.59375 C23.62671341 23.76796509 23.35889557 24.94218018 23.08296204 26.15197754 C22.50586065 28.68219455 21.92588186 31.21175665 21.34332275 33.74072266 C20.43041057 37.70819066 19.5359379 41.679668 18.64599609 45.65234375 C18.49656115 46.31929764 18.3471262 46.98625153 18.19316292 47.67341614 C17.88940216 49.02921274 17.58565375 50.3850121 17.28191757 51.74081421 C16.36524056 55.82738924 15.44280186 59.91266566 14.5210247 63.99809265 C13.57422702 68.19462631 12.62896779 72.39150219 11.68487835 76.58864594 C11.06737853 79.33230423 10.44852625 82.07565615 9.8292942 84.81892395 C9.39568649 86.74148812 8.96353673 88.66438092 8.53141785 90.58728027 C8.270569 91.74119263 8.00972015 92.89510498 7.7409668 94.08398438 C7.51257614 95.09730835 7.28418549 96.11063232 7.0488739 97.15466309 C6.4375 99.6875 6.4375 99.6875 5.4375 102.6875 C-2.4825 102.6875 -10.4025 102.6875 -18.5625 102.6875 C-20.37973704 97.23578889 -22.01346916 92.23109207 -23.28125 86.703125 C-23.57386719 85.43726562 -23.86648437 84.17140625 -24.16796875 82.8671875 C-24.46625921 81.55731748 -24.76443596 80.24742156 -25.0625 78.9375 C-25.35769531 77.65617187 -25.65289062 76.37484375 -25.95703125 75.0546875 C-26.54507648 72.500447 -27.1311977 69.94576273 -27.71533203 67.390625 C-28.52108136 63.86854841 -29.33371551 60.34813523 -30.1484375 56.828125 C-31.35114826 51.61957282 -32.53081736 46.40645206 -33.6875 41.1875 C-33.85636719 40.42953125 -34.02523437 39.6715625 -34.19921875 38.890625 C-34.84071543 36.00136437 -35.47826345 33.11474776 -36.05078125 30.2109375 C-36.50635906 27.96434771 -37.01132597 25.73923156 -37.53515625 23.5078125 C-37.71240234 22.74339844 -37.88964844 21.97898437 -38.07226562 21.19140625 C-38.43923521 19.61201064 -38.81159043 18.03385621 -39.18945312 16.45703125 C-40.27104823 11.74238592 -40.76241501 7.52415351 -40.5625 2.6875 C-35.56762111 1.97591974 -30.56842354 1.3152485 -25.5625 0.6875 C-24.56863281 0.55859375 -23.57476562 0.4296875 -22.55078125 0.296875 C-15.02100595 -0.4838384 -7.55147955 -0.26886416 0 0 Z " fill="#5BA52E" transform="translate(181.5625,32.3125)"/>
<path d="M0 0 C2.63247562 1.1168956 3.31898629 2.35464657 4.7746582 4.80053711 C5.2814209 5.63681641 5.78818359 6.4730957 6.31030273 7.3347168 C6.8463916 8.24640625 7.38248047 9.1580957 7.93481445 10.09741211 C9.09730617 12.02465754 10.26007435 13.95173624 11.4230957 15.87866211 C12.31182373 17.3655957 12.31182373 17.3655957 13.21850586 18.88256836 C15.97717486 23.48060244 18.79771643 28.03968242 21.62231445 32.59741211 C22.16154541 33.47018799 22.70077637 34.34296387 23.25634766 35.2421875 C26.64689219 40.71654155 30.10527726 46.14111273 33.62231445 51.53491211 C37.50081902 57.49446146 41.31823795 63.48831229 45.05981445 69.53491211 C45.52532715 70.27765381 45.99083984 71.02039551 46.47045898 71.78564453 C48.88515564 75.7168282 50.74715773 79.36238658 51.99731445 83.84741211 C49.43304486 86.75653175 46.48820312 88.40051808 43.12231445 90.28491211 C39.9275336 92.0744698 37.13425988 93.72854998 34.36450195 96.13256836 C31.99731445 97.84741211 31.99731445 97.84741211 29.95043945 97.72631836 C27.85658275 96.78408284 25.78773059 95.83912712 23.74731445 94.78491211 C23.0409082 94.42268555 22.33450195 94.06045898 21.60668945 93.68725586 C20.81004883 93.2715332 20.81004883 93.2715332 19.99731445 92.84741211 C19.99731445 92.18741211 19.99731445 91.52741211 19.99731445 90.84741211 C19.27310303 90.58114014 18.5488916 90.31486816 17.80273438 90.04052734 C14.98886021 88.84381661 12.65288007 87.45051617 10.1105957 85.75756836 C9.18174561 85.14389404 8.25289551 84.53021973 7.29589844 83.89794922 C6.31049072 83.24189697 5.32508301 82.58584473 4.30981445 81.90991211 C-2.7501816 77.2551096 -9.82477781 72.6545384 -17.06518555 68.28491211 C-27.49373507 61.98906462 -37.7454037 55.41744522 -48.00268555 48.84741211 C-47.46118614 45.25047513 -46.67000919 42.95120815 -44.45581055 40.07006836 C-43.94018555 39.39137695 -43.42456055 38.71268555 -42.89331055 38.01342773 C-42.3519043 37.31926758 -41.81049805 36.62510742 -41.25268555 35.90991211 C-40.4637793 34.87447266 -40.4637793 34.87447266 -39.65893555 33.81811523 C-32.29634933 24.20483743 -24.3631141 16.65732438 -14.87768555 9.15991211 C-14.29188721 8.69625244 -13.70608887 8.23259277 -13.10253906 7.75488281 C-2.91492084 -0.22209259 -2.91492084 -0.22209259 0 0 Z " fill="#61A835" transform="translate(97.002685546875,55.152587890625)"/>
<path d="M0 0 C4.12294979 0.38264035 6.9453318 3.01282401 10.0625 5.5 C10.63395752 5.94996338 11.20541504 6.39992676 11.79418945 6.86352539 C12.96912596 7.79144987 14.14157361 8.72253432 15.31152344 9.65673828 C16.84549437 10.87708358 18.39461261 12.07832778 19.9453125 13.27734375 C29.17442127 20.54756761 36.69255693 28.97720446 43.6875 38.375 C44.13424072 38.95789795 44.58098145 39.5407959 45.04125977 40.14135742 C46.81888423 42.60954934 47.9500933 44.52945108 48.2734375 47.578125 C46.19818715 51.52492015 42.7082004 53.16206619 38.9375 55.375 C37.18992237 56.4385034 35.44253534 57.50232007 33.6953125 58.56640625 C32.3016748 59.40389404 32.3016748 59.40389404 30.87988281 60.25830078 C25.98722847 63.21728654 21.15471632 66.27195569 16.3125 69.3125 C14.28687969 70.57879926 12.26083272 71.84441628 10.234375 73.109375 C8.70586914 74.06360352 8.70586914 74.06360352 7.14648438 75.03710938 C3.91626837 77.05223482 0.68478059 79.06530917 -2.546875 81.078125 C-3.61719971 81.74545654 -4.68752441 82.41278809 -5.7902832 83.1003418 C-7.82453915 84.3686154 -9.85948556 85.63578248 -11.89526367 86.90161133 C-12.8257251 87.48193115 -13.75618652 88.06225098 -14.71484375 88.66015625 C-15.60413574 89.2133252 -16.49342773 89.76649414 -17.40966797 90.33642578 C-20.70085418 92.4501056 -23.87678668 94.71452631 -27.02954102 97.02905273 C-29 98 -29 98 -31.1418457 97.73144531 C-33.31320832 96.87670843 -34.81262956 95.78167689 -36.625 94.3125 C-40.53813284 91.24684414 -44.65252669 88.80172948 -48.99609375 86.39453125 C-51 85 -51 85 -52 82 C-51.29418945 80.30859375 -51.29418945 80.30859375 -50.11328125 78.4375 C-49.6759668 77.73351074 -49.23865234 77.02952148 -48.78808594 76.30419922 C-48.30114258 75.54381348 -47.81419922 74.78342773 -47.3125 74 C-46.81137695 73.19965332 -46.31025391 72.39930664 -45.79394531 71.57470703 C-44.20580265 69.04345044 -42.60369639 66.52142426 -41 64 C-40.03957773 62.47705844 -39.079919 60.95363504 -38.12109375 59.4296875 C-36.16303416 56.32071505 -34.19840469 53.21601008 -32.23046875 50.11328125 C-29.28780093 45.46643603 -26.37859618 40.79920995 -23.47216797 36.12963867 C-17.92875012 27.22629446 -12.3389632 18.35757662 -6.625 9.5625 C-6.07142822 8.70986572 -5.51785645 7.85723145 -4.94750977 6.97875977 C-1.13223427 1.13223427 -1.13223427 1.13223427 0 0 Z " fill="#60A734" transform="translate(252,55)"/>
<path d="M0 0 C0.9140625 2.7734375 0.9140625 2.7734375 1.625 6.375 C1.86476563 7.53773438 2.10453125 8.70046875 2.3515625 9.8984375 C5.72621437 29.58637359 5.27727401 50.52312729 1 70 C-5.90655205 70.4604368 -12.19517672 68.74778193 -18.875 67.125 C-21.14317184 66.58569634 -23.41139997 66.04662935 -25.6796875 65.5078125 C-27.32457153 65.11372192 -27.32457153 65.11372192 -29.00268555 64.71166992 C-32.10689239 63.97461991 -35.21691314 63.27438629 -38.33300781 62.58984375 C-44.40198617 61.24760174 -50.46192802 59.86480078 -56.52270508 58.48608398 C-58.14487294 58.11756602 -59.76727281 57.75006799 -61.38989258 57.38354492 C-63.74877215 56.8505892 -66.1068779 56.31432564 -68.46484375 55.77734375 C-69.55538307 55.53201149 -69.55538307 55.53201149 -70.66795349 55.28172302 C-75.77202358 54.11398821 -75.77202358 54.11398821 -78 53 C-78.82562945 50.23294478 -79.5586913 47.48815768 -80.25 44.6875 C-82.06219695 37.68441031 -84.29235934 31.69713789 -87.86328125 25.3828125 C-89 23 -89 23 -89 19 C-88.06470459 18.78496826 -87.12940918 18.56993652 -86.16577148 18.34838867 C-82.44782437 17.49334126 -78.730178 16.63699108 -75.01257324 15.78045654 C-73.29708203 15.38543409 -71.5815059 14.99078023 -69.86584473 14.59649658 C-58.91698693 12.08014254 -47.97822793 9.52581879 -37.05078125 6.91796875 C-33.83694806 6.15414822 -30.62297611 5.39091415 -27.40896606 4.62783813 C-25.30253868 4.1258388 -23.19680174 3.62093344 -21.09176636 3.11312866 C-18.13054156 2.39898962 -15.16714029 1.69463959 -12.203125 0.9921875 C-11.31422073 0.77495529 -10.42531647 0.55772308 -9.50947571 0.33390808 C-8.69327255 0.14234634 -7.8770694 -0.04921539 -7.03613281 -0.24658203 C-6.32547668 -0.41707062 -5.61482056 -0.5875592 -4.88262939 -0.76321411 C-3 -1 -3 -1 0 0 Z " fill="#5FA733" transform="translate(320,144)"/>
<path d="M0 0 C0.82585602 0.19475418 1.65171204 0.38950836 2.50259399 0.59016418 C3.40617645 0.8105687 4.30975891 1.03097321 5.24072266 1.25805664 C6.656642 1.59428291 6.656642 1.59428291 8.10116577 1.93730164 C10.14037336 2.4221458 12.17885117 2.91006731 14.2166748 3.4006958 C19.56000059 4.68706716 24.90836735 5.95213915 30.25634766 7.21899414 C31.33295654 7.47461121 32.40956543 7.73022827 33.51879883 7.99359131 C45.10161454 10.73648764 56.71993429 13.3109876 68.34765625 15.85546875 C69.05475739 16.01070511 69.76185852 16.16594147 70.49038696 16.32588196 C72.36999325 16.73815389 74.25015967 17.1478698 76.13037109 17.55737305 C79.02978516 18.23071289 79.02978516 18.23071289 82.02978516 19.23071289 C81.70086551 23.28738854 80.54947914 26.38030099 78.77978516 29.98071289 C76.35049688 35.074977 74.80897188 40.19152351 73.35791016 45.62133789 C73.13184082 46.45165527 72.90577148 47.28197266 72.67285156 48.13745117 C72.12083168 50.16736557 71.57470267 52.19888039 71.02978516 54.23071289 C69.92393066 54.47192871 68.81807617 54.71314453 67.67871094 54.96166992 C63.44876428 55.88480567 59.21920589 56.80970899 54.98980713 57.73535156 C53.10294753 58.14823539 51.21602549 58.56083402 49.32904053 58.97314453 C36.91230333 61.6876243 24.50705875 64.43347578 12.16308594 67.46557617 C5.79807474 68.98473784 -0.44072118 69.80669925 -6.97021484 70.23071289 C-8.69842341 65.59069072 -9.55461796 61.06747635 -10.09521484 56.16821289 C-10.17940674 55.41652832 -10.26359863 54.66484375 -10.3503418 53.89038086 C-11.04098985 47.30858192 -11.1991153 40.84667457 -10.97021484 34.23071289 C-10.95619629 33.51657227 -10.94217773 32.80243164 -10.92773438 32.06665039 C-10.70526355 21.09448114 -9.92295543 10.58241843 -5.97021484 0.23071289 C-3.46563472 -1.02157717 -2.68386329 -0.64502949 0 0 Z " fill="#5EA631" transform="translate(35.97021484375,143.769287109375)"/>
<path d="M0 0 C1.56113525 0.05184448 1.56113525 0.05184448 3.15380859 0.10473633 C20.79155827 0.86452914 20.79155827 0.86452914 26.4375 3.6875 C26.85597587 10.46096995 25.28746428 16.61863037 23.75 23.1875 C23.20126931 25.58971736 22.65310306 27.99206371 22.10546875 30.39453125 C21.82751465 31.60447754 21.54956055 32.81442383 21.26318359 34.06103516 C19.98909291 39.65693788 18.77405301 45.26528264 17.5625 50.875 C17.148456 52.78516026 16.73439538 54.69531692 16.3203125 56.60546875 C16.02594446 57.96612481 15.73163224 59.32679295 15.4375 60.6875 C15.1075 60.6875 14.7775 60.6875 14.4375 60.6875 C15.96733725 41.15766275 15.96733725 41.15766275 17.4375 39.6875 C17.9750797 37.02297455 18.47288466 34.36478841 18.9375 31.6875 C20.30236486 23.82263514 20.30236486 23.82263514 21.4375 22.6875 C21.66963066 20.73097018 21.90044076 18.77426371 22.12109375 16.81640625 C22.54420138 13.96957094 23.45602752 11.38654932 24.4375 8.6875 C24.7820823 7.35702944 25.11762378 6.02412564 25.4375 4.6875 C14.94137747 3.11845992 4.70002118 2.39095346 -5.91137695 2.48168945 C-8.15522385 2.50025 -10.39866143 2.502196 -12.64257812 2.50195312 C-19.04617814 2.52356921 -25.2206904 2.69902691 -31.5625 3.6875 C-34.2418948 3.79501986 -36.87882049 3.7345821 -39.5625 3.6875 C-39.5625 5.6675 -39.5625 7.6475 -39.5625 9.6875 C-39.8925 9.6875 -40.2225 9.6875 -40.5625 9.6875 C-40.5625 7.3775 -40.5625 5.0675 -40.5625 2.6875 C-35.56762111 1.97591974 -30.56842354 1.3152485 -25.5625 0.6875 C-24.56863281 0.55859375 -23.57476562 0.4296875 -22.55078125 0.296875 C-15.02100595 -0.4838384 -7.55147955 -0.26886416 0 0 Z " fill="#C6DBA4" transform="translate(181.5625,32.3125)"/>
<path d="M0 0 C7.13540483 0.63358872 13.90092029 1.99969546 20.86328125 3.66015625 C21.99763107 3.92600525 23.1319809 4.19185425 24.30070496 4.46575928 C26.72214896 5.03368572 29.14306063 5.60388591 31.56347656 6.17617798 C37.85884848 7.6644927 44.15808499 9.1362749 50.45703125 10.609375 C51.70312164 10.9012117 52.94921204 11.1930484 54.23306274 11.49372864 C64.97306811 14.00479392 75.72941919 16.43631761 86.5 18.8125 C87.26261139 18.98089386 88.02522278 19.14928772 88.8109436 19.32278442 C92.87310639 20.21911715 96.93606455 21.11173278 101 22 C101 22.33 101 22.66 101 23 C94.62297609 23.36633967 89.45386319 22.76676202 83.40234375 20.73046875 C81.05459818 20.0166014 78.87276924 19.63979755 76.4375 19.375 C73 19 73 19 72 18 C70.0371607 17.77475615 68.07355278 17.55245212 66.10546875 17.37890625 C64 17 64 17 62.13671875 16.02734375 C59.92726222 14.96502736 58.12282072 14.54538641 55.70703125 14.18359375 C54.91232422 14.05919922 54.11761719 13.93480469 53.29882812 13.80664062 C52.47833984 13.68482422 51.65785156 13.56300781 50.8125 13.4375 C42.12534215 12.12534215 42.12534215 12.12534215 41 11 C39.906875 10.855625 38.81375 10.71125 37.6875 10.5625 C34 10 34 10 32.046875 8.99609375 C29.77524896 7.89062688 28.07063405 7.67387411 25.5625 7.5 C22.96244638 7.3191267 21.05367788 7.02201943 18.62890625 6.02734375 C14.53664208 4.42813799 10.3030796 4.17187323 5.9609375 3.66015625 C2.79906103 2.95519962 2.08542672 2.31348396 0 0 Z " fill="#B6D390" transform="translate(194,201)"/>
<path d="M0 0 C6.3261836 0.6773424 12.42298191 1.88052897 18.625 3.28515625 C19.61250244 3.50570175 20.60000488 3.72624725 21.61743164 3.95347595 C24.74575082 4.65298292 27.8728791 5.35765764 31 6.0625 C33.13143362 6.54005643 35.26294331 7.01727348 37.39453125 7.49414062 C42.59724062 8.65883572 47.79898424 9.82776649 53 11 C53 11.33 53 11.66 53 12 C41.24782816 11.26390284 29.07283339 9.77731252 18 5.625 C14.96240799 4.6757525 11.91310821 4.44158081 8.75 4.2109375 C7 4 7 4 6 3 C3.67182036 2.63239269 1.3381615 2.29758419 -1 2 C-0.67 1.34 -0.34 0.68 0 0 Z " fill="#C3DA9F" transform="translate(62,151)"/>
<path d="M0 0 C0.33 0 0.66 0 1 0 C1.02505615 1.0194873 1.0501123 2.03897461 1.07592773 3.08935547 C1.16997004 6.86520354 1.27019837 10.64086627 1.37231445 14.41650391 C1.41567538 16.05187653 1.45734961 17.68729477 1.49731445 19.32275391 C1.55498912 21.67103841 1.61869129 24.01909304 1.68359375 26.3671875 C1.70866249 27.46726639 1.70866249 27.46726639 1.73423767 28.58956909 C1.78637962 32.42202308 1.78637962 32.42202308 3 36 C3.23172827 38.54615009 3.41894529 41.07396225 3.5625 43.625 C3.60568359 44.33140625 3.64886719 45.0378125 3.69335938 45.765625 C3.79944751 47.51018537 3.90022889 49.25506697 4 51 C5.65 51 7.3 51 9 51 C9 51.33 9 51.66 9 52 C7.02 52 5.04 52 3 52 C1.27177608 47.35993661 0.41578141 42.83676836 -0.125 37.9375 C-0.20919189 37.18799072 -0.29338379 36.43848145 -0.38012695 35.66625977 C-1.63494311 23.73469988 -0.85749695 11.92839509 0 0 Z " fill="#B9D596" transform="translate(26,162)"/>
<path d="M0 0 C3.37419178 5.06128766 4.52769515 10.06492878 5.5625 16 C5.81360196 17.39586935 6.06489953 18.79170352 6.31640625 20.1875 C6.54199219 21.445625 6.76757812 22.70375 7 24 C7.33 25.65 7.66 27.3 8 29 C15.26 29.33 22.52 29.66 30 30 C30.33 29.34 30.66 28.68 31 28 C31 28.99 31 29.98 31 31 C23.08 31 15.16 31 7 31 C5.08771842 25.26315527 3.27779711 19.65658378 1.8125 13.8125 C1.63525391 13.14025391 1.45800781 12.46800781 1.27539062 11.77539062 C0.26354797 7.76318056 -0.18641695 4.13331365 0 0 Z " fill="#C5DBA3" transform="translate(156,104)"/>
<path d="M0 0 C4.2959095 8.591819 -3.97113503 28.95358096 -6 38 C-6.33 38 -6.66 38 -7 38 C-5.47016275 18.47016275 -5.47016275 18.47016275 -4 17 C-3.4624203 14.33547455 -2.96461534 11.67728841 -2.5 9 C-1.13513514 1.13513514 -1.13513514 1.13513514 0 0 Z " fill="#BED89C" transform="translate(203,55)"/>
<path d="M0 0 C0.33 0 0.66 0 1 0 C0.39828638 6.32749371 -0.62151909 12.37595652 -2.0625 18.5625 C-2.24876953 19.38041016 -2.43503906 20.19832031 -2.62695312 21.04101562 C-3.08020687 23.02835896 -3.53946212 25.01433201 -4 27 C-4.33 27 -4.66 27 -5 27 C-4.85975781 24.52039864 -4.7130815 22.04147598 -4.5625 19.5625 C-4.52318359 18.85544922 -4.48386719 18.14839844 -4.44335938 17.41992188 C-4.11328125 12.11328125 -4.11328125 12.11328125 -3 11 C-2.77471076 9.00458104 -2.55238905 7.00840136 -2.37890625 5.0078125 C-2 3 -2 3 0 0 Z " fill="#BBD698" transform="translate(192,105)"/>
<path d="M0 0 C-0.99 0 -1.98 0 -3 0 C-3 0.66 -3 1.32 -3 2 C-9.43028541 3.32388229 -15.4294834 4.24794402 -22 4 C-18.47921315 1.98434953 -14.94911236 1.17009326 -11 0.3125 C-9.783125 0.04050781 -8.56625 -0.23148438 -7.3125 -0.51171875 C-4.35566123 -0.94757352 -2.74913631 -1.02405328 0 0 Z " fill="#B7D492" transform="translate(261,158)"/>
<path d="M0 0 C0.33 2.31 0.66 4.62 1 7 C0.64292969 6.34515625 0.28585937 5.6903125 -0.08203125 5.015625 C-1.90299431 2.67565396 -1.90299431 2.67565396 -5.13671875 2.609375 C-6.89435547 2.67898437 -6.89435547 2.67898437 -8.6875 2.75 C-9.86699219 2.78609375 -11.04648437 2.8221875 -12.26171875 2.859375 C-13.61716797 2.92898437 -13.61716797 2.92898437 -15 3 C-12.22199328 1.14799552 -10.66558555 0.5142048 -7.5 -0.1875 C-6.7265625 -0.36667969 -5.953125 -0.54585937 -5.15625 -0.73046875 C-3 -1 -3 -1 0 0 Z " fill="#B9D596" transform="translate(320,144)"/>
<path d="M0 0 C2.55664559 2.22317008 3.3936615 3.68845894 4 7 C4.06624507 8.74886981 4.08552595 10.50002748 4.0625 12.25 C4.05347656 13.14203125 4.04445312 14.0340625 4.03515625 14.953125 C4.02355469 15.62859375 4.01195312 16.3040625 4 17 C1.17136025 11.6636166 -0.37974335 6.07589367 0 0 Z " fill="#B7D494" transform="translate(152,87)"/>
<path d="M0 0 C0.66 0.33 1.32 0.66 2 1 C-1.3 4.63 -4.6 8.26 -8 12 C-8.99 11.67 -9.98 11.34 -11 11 C-7.33333333 7.33333333 -3.66666667 3.66666667 0 0 Z " fill="#9FC878" transform="translate(76,69)"/>
<path d="M0 0 C6.27 1.32 12.54 2.64 19 4 C19 4.33 19 4.66 19 5 C11.64825194 5.55253221 6.488417 4.51064108 0 1 C0 0.67 0 0.34 0 0 Z " fill="#C1D99E" transform="translate(249,213)"/>
<path d="M0 0 C1.50416548 3.00833096 0.60839737 5.34961578 0.0625 8.625 C-0.13214844 9.81351563 -0.32679688 11.00203125 -0.52734375 12.2265625 C-0.68332031 13.14179687 -0.83929688 14.05703125 -1 15 C-1.66 15 -2.32 15 -3 15 C-2.5547115 9.72684667 -1.91626837 4.98229776 0 0 Z " fill="#9BC673" transform="translate(203,55)"/>
<path d="M0 0 C4.37934119 0.51958285 8.68803391 1.05675742 13 2 C13 2.66 13 3.32 13 4 C11.00045254 4.04254356 8.99958364 4.04080783 7 4 C6.67 3.67 6.34 3.34 6 3 C3.67182036 2.63239269 1.3381615 2.29758419 -1 2 C-0.67 1.34 -0.34 0.68 0 0 Z " fill="#AACD84" transform="translate(62,151)"/>
<path d="M0 0 C2 3 2 3 2 6 C2.928125 5.938125 3.85625 5.87625 4.8125 5.8125 C8 6 8 6 9.875 7.5 C10.24625 7.995 10.6175 8.49 11 9 C3.25 8.125 3.25 8.125 1 7 C0.59270772 4.67843403 0.25561323 2.3431213 0 0 Z " fill="#B8D493" transform="translate(241,190)"/>
<path d="M0 0 C0 0.66 0 1.32 0 2 C-9.41002278 4.29612756 -9.41002278 4.29612756 -14 4 C-9.2157506 0.8105004 -5.77575443 -0.26863974 0 0 Z " fill="#BFD89A" transform="translate(107,196)"/>
<path d="M0 0 C2.94721162 2.74395564 5.19168608 5.38337216 7 9 C6.67 9.66 6.34 10.32 6 11 C3.66475218 8.74259377 1.81294927 6.7194239 0 4 C0 2.68 0 1.36 0 0 Z " fill="#BBD698" transform="translate(138,120)"/>
<path d="M0 0 C2.97 0.33 5.94 0.66 9 1 C9 1.66 9 2.32 9 3 C9.99 3.33 10.98 3.66 12 4 C10.56138706 3.91253716 9.12402492 3.80434652 7.6875 3.6875 C6.88699219 3.62949219 6.08648437 3.57148438 5.26171875 3.51171875 C3 3 3 3 0 0 Z " fill="#A7CC81" transform="translate(194,201)"/>
<path d="M0 0 C-0.33 0.66 -0.66 1.32 -1 2 C-3.88211302 2.96070434 -5.69850044 3.10581883 -8.6875 3.0625 C-9.89986328 3.04896484 -9.89986328 3.04896484 -11.13671875 3.03515625 C-12.05904297 3.01775391 -12.05904297 3.01775391 -13 3 C-8.49192825 0.69441653 -5.09714099 -0.14158725 0 0 Z " fill="#B4D290" transform="translate(288,151)"/>
<path d="M0 0 C1.5625 1.1875 1.5625 1.1875 3 3 C3 5.5625 3 5.5625 2 8 C-0.5625 9.3125 -0.5625 9.3125 -3 10 C-2.34 9.01 -1.68 8.02 -1 7 C-0.34 7 0.32 7 1 7 C0.67 4.69 0.34 2.38 0 0 Z " fill="#BDD79B" transform="translate(297,97)"/>
<path d="M0 0 C0.90105469 0.01804688 1.80210938 0.03609375 2.73046875 0.0546875 C3.41753906 0.07789063 4.10460937 0.10109375 4.8125 0.125 C4.8125 0.455 4.8125 0.785 4.8125 1.125 C3.39872218 1.49052803 1.98129424 1.84195495 0.5625 2.1875 C-0.22640625 2.38472656 -1.0153125 2.58195313 -1.828125 2.78515625 C-4.29144822 3.13997267 -5.84354132 2.89377544 -8.1875 2.125 C-4.87379 -0.08414 -3.8428979 -0.09981553 0 0 Z " fill="#B4D290" transform="translate(88.1875,199.875)"/>
<path d="M0 0 C1.65 0 3.3 0 5 0 C3.68 2.31 2.36 4.62 1 7 C0.34 6.34 -0.32 5.68 -1 5 C-0.625 2.375 -0.625 2.375 0 0 Z " fill="#87BC5E" transform="translate(234,162)"/>
<path d="M0 0 C1.4783226 2.95664519 1.06032783 5.74229737 1 9 C-0.32 8.34 -1.64 7.68 -3 7 C-1.125 1.125 -1.125 1.125 0 0 Z " fill="#B5D391" transform="translate(203,132)"/>
<path d="M0 0 C1.45606519 4.52092968 0.27032841 7.51648796 -1 12 C-1.33 12 -1.66 12 -2 12 C-2.05422947 10.5629191 -2.09289723 9.12524538 -2.125 7.6875 C-2.14820313 6.88699219 -2.17140625 6.08648437 -2.1953125 5.26171875 C-2 3 -2 3 0 0 Z " fill="#BDD79A" transform="translate(195,93)"/>
<path d="M0 0 C3.09902323 3.09902323 2.9898579 5.39147385 3.0625 9.75 C3.041875 10.8225 3.02125 11.895 3 13 C0.58399057 8.65118303 0 4.96195443 0 0 Z " fill="#CFE0AF" transform="translate(145,56)"/>
<path d="M0 0 C0.6875 1.75 0.6875 1.75 1 4 C-0.3125 6.25 -0.3125 6.25 -2 8 C-2.66 8 -3.32 8 -4 8 C-2.87548273 5.0280615 -1.77706209 2.66559313 0 0 Z " fill="#ABCE86" transform="translate(210,121)"/>
<path d="M0 0 C0.75 1.75 0.75 1.75 1 4 C-0.9375 6.25 -0.9375 6.25 -3 8 C-3.33 7.34 -3.66 6.68 -4 6 C-2.68 4.02 -1.36 2.04 0 0 Z " fill="#ADD08A" transform="translate(242,70)"/>
<path d="M0 0 C2.79872437 2.52788007 4.45773019 4.20411134 5 8 C2 7 2 7 0 4 C0 2.68 0 1.36 0 0 Z " fill="#B6D493" transform="translate(104,66)"/>
<path d="M0 0 C0.75 1.75 0.75 1.75 1 4 C-0.9375 6.25 -0.9375 6.25 -3 8 C-3.33 7.34 -3.66 6.68 -4 6 C-2.68 4.02 -1.36 2.04 0 0 Z " fill="#ADCF89" transform="translate(249,59)"/>
</svg>
